PathFileType	4	(X/Y/Z)	C:\Users\Willi\SynologyDrive\Deimel_MSc_Deadlift\Athlete_03\Athlete_3_22_07_06\dl_80\marker_experimental.trc
DataRate	CameraRate	NumFrames	NumMarkers	Units	OrigDataRate	OrigDataStartFrame	OrigNumFrames
200.000000	200.000000	4	59	mm	200.000000	413	3308
Frame#	Time	BL			BR			GLAB			RFHD			LFHD			C7			T6			SPINMOL			SPINM2			SPINM3			T12			BELTOL			BELT2			BELT3			SACROL			SACR2			SACR3			LTHOL			LTH2			LTH3			LSHAOL			LSHA2			LSHA3			LHEE			LTOE			LM5			RTHOL			RTH2			RTH3			RSHAOL			RSHA2			RSHA3			RHEE			RTOE			RM5			STRN			XIPH			LACR			LUAOL			LUA2			LUA3			LLAOL			LLA2			LLA3			LWRU			RACR			RUAOL			RUA2			RUA3			RLAOL			RLA2			RLA3			RWRU			USERMO0			USERMO1			USERMO2			USERMO3			USERMO4			USERMO5			
		X1	Y1	Z1	X2	Y2	Z2	X3	Y3	Z3	X4	Y4	Z4	X5	Y5	Z5	X6	Y6	Z6	X7	Y7	Z7	X8	Y8	Z8	X9	Y9	Z9	X10	Y10	Z10	X11	Y11	Z11	X12	Y12	Z12	X13	Y13	Z13	X14	Y14	Z14	X15	Y15	Z15	X16	Y16	Z16	X17	Y17	Z17	X18	Y18	Z18	X19	Y19	Z19	X20	Y20	Z20	X21	Y21	Z21	X22	Y22	Z22	X23	Y23	Z23	X24	Y24	Z24	X25	Y25	Z25	X26	Y26	Z26	X27	Y27	Z27	X28	Y28	Z28	X29	Y29	Z29	X30	Y30	Z30	X31	Y31	Z31	X32	Y32	Z32	X33	Y33	Z33	X34	Y34	Z34	X35	Y35	Z35	X36	Y36	Z36	X37	Y37	Z37	X38	Y38	Z38	X39	Y39	Z39	X40	Y40	Z40	X41	Y41	Z41	X42	Y42	Z42	X43	Y43	Z43	X44	Y44	Z44	X45	Y45	Z45	X46	Y46	Z46	X47	Y47	Z47	X48	Y48	Z48	X49	Y49	Z49	X50	Y50	Z50	X51	Y51	Z51	X52	Y52	Z52	X53	Y53	Z53	X54	Y54	Z54	X55	Y55	Z55	X56	Y56	Z56	X57	Y57	Z57	X58	Y58	Z58	X59	Y59	Z59	

414	2.065	126.1315612792969	248.1602172851564	-2313.814208984375	190.5994262695312	251.0110778808594	-91.9738311767578	526.6751708984375	1097.67822265625	-1191.853149414062	516.1942138671875	1169.152587890625	-1125.591674804688	520.58349609375	1147.254516601562	-1277.352783203125	327.7406311035156	1265.598022460938	-1210.91943359375	108.2614364624023	1225.015380859375	-1219.191772460938	76.872802734375	1211.06689453125	-1221.470458984375	25.38735008239746	1177.544189453125	-1170.081909179688	26.32646179199219	1174.536987304688	-1219.7080078125	-8.334619522094727	1132.331298828125	-1218.391723632812	-70.78292846679688	1118.4296875	-1218.381713867188	-106.9294586181641	1071.333129882812	-1164.709350585938	-114.0495758056641	1073.807373046875	-1214.337768554688	-146.514404296875	1007.775268554688	-1233.930297851562	-135.5625	1015.445434570313	-1184.215209960938	-181.2717590332031	968.7938842773439	-1193.021728515625	-11.2785587310791	735.3330688476564	-1444.477416992188	-32.61597442626953	659.6066284179689	-1429.869140625	12.84335327148438	678.5482788085939	-1441.742553710938	57.15413665771484	341.2633056640626	-1430.000244140625	20.63980484008789	272.4510498046876	-1417.765380859375	69.42068481445312	281.0086059570314	-1422.348388671875	4.783805370330811	65.78823852539071	-1321.503173828125	214.169921875	75.62270355224618	-1339.39892578125	163.1531372070312	54.41751480102548	-1441.85693359375	-3.802488088607788	708.9566040039064	-988.8007202148438	61.96428680419922	664.3002929687501	-980.710693359375	14.64081573486328	649.4010620117189	-988.4198608398438	39.81216430664062	337.2943420410157	-991.0851440429688	82.20270538330078	270.2918395996094	-993.4534301757812	33.59273910522461	277.5157165527344	-1003.5927734375	6.137084484100342	61.53881454467781	-1112.0078125	214.2155456542969	76.47886657714851	-1061.962280273438	153.9179382324219	68.85505676269537	-975.4593505859375	317.8965454101562	1096.122924804688	-1223.800170898438	206.2672271728516	990.5147705078126	-1225.305419921875	320.2077026367188	1165.502563476562	-1422.88525390625	271.6421203613281	1039.572143554688	-1500.913940429688	232.2276153564453	992.6511230468751	-1526.897705078125	275.6433715820312	973.9334106445314	-1506.471069335938	256.8424987792969	759.9242553710939	-1528.026611328125	239.9732666015625	696.4862060546876	-1529.272094726562	280.5657348632812	706.1852416992189	-1501.9931640625	263.639404296875	607.2664184570314	-1503.999877929688	332.0200500488281	1139.255493164062	-1026.307250976562	291.7925720214844	984.9313354492189	-963.4451293945311	293.8725280761719	921.3388671875001	-980.6446533203125	277.1228942871094	927.3947143554689	-933.478759765625	270.2108459472656	736.7572631835938	-918.8363037109375	280.0913391113281	680.0994262695314	-949.66015625	260.43994140625	674.638427734375	-902.7760009765625	251.1172637939453	599.3170166015625	-901.4613037109375	0.01574989967048168	0.02988749928772449	-0.02723960019648075	0.01028519961982965	0.009901329874992371	-0.006736880168318748	0.0068592200987041	0.008295689709484577	-0.008133039809763432	0.009882570244371891	2.145390033721924	-2.057980060577393	1.979850053787231	2.852089881896973	-1.894889950752258	2.896270036697388	0	0	
415	2.07	126.1296920776367	248.1572265625001	-2313.806640625	190.5986938476562	251.0108795166016	-91.97398376464842	527.0347900390625	1093.8359375	-1191.528076171875	516.8341674804688	1165.375	-1125.344848632812	521.178955078125	1143.316040039062	-1277.110717773438	329.0108337402344	1262.712036132812	-1210.741821289062	109.3063735961914	1223.598388671875	-1219.196411132812	77.80354309082031	1209.861206054688	-1221.507080078125	26.04609298706055	1176.6396484375	-1170.19384765625	27.01115608215332	1173.667724609375	-1219.821166992188	-7.989782810211182	1131.646850585938	-1218.575561523438	-70.65847015380859	1118.031616210938	-1218.647094726562	-107.058723449707	1071.1025390625	-1165.001831054688	-114.1251754760742	1073.602661132812	-1214.63525390625	-146.9242248535156	1007.533447265625	-1234.208618164062	-135.9704895019531	1015.163208007813	-1184.502075195312	-181.8236694335938	968.6596069335939	-1193.34033203125	-11.78929424285889	735.0439453125001	-1444.7607421875	-32.96691131591797	659.2725219726564	-1430.163330078125	12.46116733551025	678.3185424804689	-1442.004150390625	57.23581314086914	341.2024841308595	-1430.206909179688	20.71460151672363	272.4018859863282	-1417.950805664062	69.49626922607422	280.9560852050782	-1422.515747070312	4.788078308105469	65.79844665527352	-1321.525634765625	214.1762390136719	75.6217803955079	-1339.408081054688	163.1496734619141	54.40609359741219	-1441.865112304688	-4.114540576934814	708.8032836914064	-989.0512084960938	61.80781173706055	664.3486328125001	-981.061767578125	14.50132179260254	649.3060913085939	-988.6239013671875	39.97644424438477	337.3968811035157	-991.1251220703125	82.29571533203125	270.3570861816407	-993.6118774414062	33.6591682434082	277.6262207031251	-1003.587341308594	5.966199398040771	61.40890502929695	-1111.971557617188	214.1486511230469	76.97743988037116	-1062.412475585938	154.0114593505859	69.2027206420899	-975.82568359375	318.1917724609375	1093.239990234375	-1223.748657226562	205.7878265380859	988.4127807617189	-1225.394409179688	321.2109375	1162.62548828125	-1422.701049804688	272.3818664550781	1036.91259765625	-1500.823120117188	232.8780975341797	990.1091918945314	-1526.894775390625	276.1898193359375	971.2548217773439	-1506.358764648438	256.8449401855469	757.3095092773439	-1527.884033203125	239.8562316894531	693.9059448242189	-1529.123291015625	280.43115234375	703.5374755859376	-1501.799560546875	263.3026733398438	604.6524658203126	-1503.781616210938	332.8751525878906	1135.986450195312	-1026.345825195312	292.2896728515625	981.7319946289064	-963.6373291015624	294.2921142578125	918.1672973632814	-980.9093017578125	277.5088195800781	924.1896362304689	-933.74560546875	270.08740234375	733.4967041015625	-919.1427001953125	279.80322265625	676.7836303710939	-949.910400390625	260.1050109863281	671.4280395507812	-903.042236328125	250.5567932128906	596.1272583007812	-901.6627197265625	0.01593930087983608	0.03164089843630791	-0.02790799923241138	0.01047400012612343	0.009903750382363796	-0.00677869003266096	0.006857059895992279	0.008081610314548016	-0.008057720027863979	0.009772069752216339	2.148109912872314	-2.060280084609985	1.980399966239929	2.851779937744141	-1.89611005783081	2.8961501121521	0	0	
416	2.075	126.1275482177734	248.153778076172	-2313.798095703125	190.5979461669922	251.0106964111328	-91.97424316406249	527.378173828125	1090.017822265625	-1191.207275390625	517.4554443359375	1161.63232421875	-1125.095825195312	521.7569580078125	1139.411987304688	-1276.86474609375	330.2618103027344	1259.841674804688	-1210.560180664062	110.346435546875	1222.18115234375	-1219.198486328125	78.73155212402344	1208.65625	-1221.541259765625	26.70584487915039	1175.736206054688	-1170.302734375	27.6983814239502	1172.797973632812	-1219.931884765625	-7.640152454376221	1130.96435546875	-1218.755126953125	-70.52409362792969	1117.6357421875	-1218.907470703125	-107.1752624511719	1070.874145507812	-1165.28857421875	-114.1886444091797	1073.399291992188	-1214.926879882812	-147.3220367431641	1007.295166015625	-1234.48095703125	-136.3690643310547	1014.888427734375	-1184.782836914062	-182.3591918945312	968.5269165039064	-1193.652465820312	-12.27952575683594	734.7597045898439	-1445.028564453125	-33.29998397827148	658.9440307617189	-1430.443481445312	12.09771823883057	678.0935058593751	-1442.248046875	57.32179641723633	341.1438293457032	-1430.403198242188	20.7929515838623	272.355682373047	-1418.13037109375	69.57521057128906	280.9061889648439	-1422.676025390625	4.79250955581665	65.8086471557618	-1321.547973632812	214.1834106445312	75.62024688720712	-1339.415283203125	163.1467742919922	54.39595794677743	-1441.871704101562	-4.400739192962646	708.6577758789064	-989.3038940429688	61.67262649536133	664.4014282226564	-981.41845703125	14.38257122039795	649.2185058593751	-988.8286743164062	40.14096450805664	337.5023803710938	-991.176025390625	82.38714599609375	270.4243469238282	-993.7783203125	33.7258186340332	277.7393493652344	-1003.592834472656	5.79179048538208	61.27816390991218	-1111.93359375	214.0794830322266	77.48766326904304	-1062.90478515625	154.1218109130859	69.56511688232428	-976.2142333984375	318.4925231933594	1090.377319335938	-1223.69482421875	205.3230895996094	986.3294067382814	-1225.483642578125	322.20166015625	1159.764770507812	-1422.516845703125	273.1056213378906	1034.265625	-1500.733154296875	233.5107116699219	987.5775756835939	-1526.884155273438	276.7225341796875	968.5881958007814	-1506.246459960938	256.8436279296875	754.7092895507814	-1527.746337890625	239.7327575683594	691.3403930664064	-1528.982055664062	280.2913208007812	700.9033813476564	-1501.614624023438	262.9588928222656	602.0529174804689	-1503.576904296875	333.7118225097656	1132.735229492188	-1026.378784179688	292.776611328125	978.5472412109376	-963.8267822265624	294.7056274414062	915.0109863281251	-981.1681518554688	277.8833923339844	920.9975585937501	-934.0076904296875	269.9581298828125	730.2503662109375	-919.4459228515625	279.5090026855469	673.4815673828126	-950.1563720703125	259.7634582519531	668.2327270507812	-903.3033447265625	249.9894104003906	592.9530029296875	-901.857421875	0.01622899994254112	0.03333849832415581	-0.02850420027971267	0.0105860996991396	0.009857770055532455	-0.00682681007310748	0.006860210094600916	0.007902350276708603	-0.007950089871883392	0.009660829789936543	2.151920080184937	-2.063719987869263	1.980939984321594	2.851380109786987	-1.896999955177307	2.8961501121521	0	0	
417	2.08	126.125114440918	248.1497955322267	-2313.7880859375	190.5971832275391	251.0105285644531	-91.97460937499999	527.7064208984375	1086.224365234375	-1190.894165039062	518.059326171875	1157.925170898438	-1124.8447265625	522.3189697265625	1135.543090820312	-1276.615356445312	331.4945068359375	1256.98681640625	-1210.374877929688	111.3820953369141	1220.764526367188	-1219.197631835938	79.65711975097656	1207.453002929688	-1221.57275390625	27.36719131469727	1174.83447265625	-1170.407592773438	28.38840484619141	1171.928466796875	-1220.039306640625	-7.285084247589111	1130.284790039062	-1218.929565429688	-70.37908935546875	1117.242553710938	-1219.16162109375	-107.2784042358398	1070.648681640625	-1165.568359375	-114.2395248413086	1073.1982421875	-1215.211547851562	-147.7067108154297	1007.060791015625	-1234.746826171875	-136.7578887939453	1014.621398925781	-1185.056274414062	-182.8779296875	968.3963012695314	-1193.956787109375	-12.74825668334961	734.4822387695314	-1445.280151367188	-33.61473846435547	658.6228027343751	-1430.709594726562	11.75333786010742	677.8745117187501	-1442.474975585938	57.41048431396484	341.0874633789064	-1430.588989257812	20.87331962585449	272.3125305175782	-1418.302856445312	69.65599060058594	280.8590393066407	-1422.82861328125	4.796986103057861	65.81872558593759	-1321.569946289062	214.1913299560547	75.61810302734384	-1339.420532226562	163.1445465087891	54.38713455200204	-1441.876586914062	-4.664695262908936	708.5186767578126	-989.5579223632812	61.55514144897461	664.4572143554689	-981.7789916992188	14.28126907348633	649.1367797851564	-989.0337524414062	40.3046989440918	337.6100463867188	-991.237548828125	82.47637176513672	270.4930419921876	-993.951904296875	33.79207611083984	277.8542480468751	-1003.609069824219	5.614838600158691	61.14736175537116	-1111.894287109375	214.0083312988281	78.00560760498054	-1063.435424804688	154.2484588623047	69.93885803222662	-976.6226196289062	318.7984619140625	1087.53515625	-1223.638916015625	204.8727416992188	984.2649536132814	-1225.572021484375	323.1806640625	1156.920288085938	-1422.332763671875	273.8140258789062	1031.63134765625	-1500.644287109375	234.1263122558594	985.0564575195314	-1526.866577148438	277.2421264648438	965.9335327148439	-1506.13427734375	256.838134765625	752.1234130859376	-1527.61376953125	239.6023406982422	688.7891845703126	-1528.848388671875	280.1459655761719	698.2821655273439	-1501.438720703125	262.6071472167969	599.4671020507814	-1503.385620117188	334.5296325683594	1129.502197265625	-1026.40625	293.2537536621094	975.3770141601564	-964.0147094726561	295.1117248535156	911.8702392578126	-981.4235229492188	278.24755859375	917.8184204101564	-934.2664184570312	269.8236999511719	727.0191040039062	-919.7476806640625	279.2083129882812	670.1941528320314	-950.39990234375	259.41650390625	665.0534057617188	-903.56005859375	249.4166870117188	589.794921875	-902.0459594726562	0.01660259999334812	0.03492699936032295	-0.02896879985928535	0.0106086004525423	0.009763720445334911	-0.006874389946460723	0.006871019955724478	0.007766270078718663	-0.007815630175173283	0.009544880129396915	2.156599998474121	-2.06810998916626	1.981250047683716	2.850879907608032	-1.897429943084717	2.896290063858032	0	0	
